<svg xmlns="http://www.w3.org/2000/svg" xmlns:xlink="http://www.w3.org/1999/xlink" width="2000" zoomAndPan="magnify" viewBox="0 0 1500 525.000007" height="700" preserveAspectRatio="xMidYMid meet" version="1.0"><defs><clipPath id="a0f88fdafe"><path d="M 1322.410156 121 L 1431.203125 121 L 1431.203125 292 L 1322.410156 292 Z M 1322.410156 121 " clip-rule="nonzero"/></clipPath><clipPath id="e017c055c0"><path d="M 1367.042969 -7.707031 L 1559.960938 122.523438 L 1408.609375 346.726562 L 1215.691406 216.492188 Z M 1367.042969 -7.707031 " clip-rule="nonzero"/></clipPath><clipPath id="af172b12e0"><path d="M 1367.042969 -7.707031 L 1559.960938 122.523438 L 1408.609375 346.726562 L 1215.691406 216.492188 Z M 1367.042969 -7.707031 " clip-rule="nonzero"/></clipPath><clipPath id="2eef780396"><path d="M 1295.460938 94 L 1457 94 L 1457 313 L 1295.460938 313 Z M 1295.460938 94 " clip-rule="nonzero"/></clipPath><clipPath id="b6c0a57a6c"><path d="M 1367.042969 -7.707031 L 1559.960938 122.523438 L 1408.609375 346.726562 L 1215.691406 216.492188 Z M 1367.042969 -7.707031 " clip-rule="nonzero"/></clipPath><clipPath id="ecbc9196f6"><path d="M 1367.042969 -7.707031 L 1559.960938 122.523438 L 1408.609375 346.726562 L 1215.691406 216.492188 Z M 1367.042969 -7.707031 " clip-rule="nonzero"/></clipPath><clipPath id="e3b08de715"><path d="M 1309.433594 86 L 1348 86 L 1348 101.804688 L 1309.433594 101.804688 Z M 1309.433594 86 " clip-rule="nonzero"/></clipPath><clipPath id="b34c35dfcc"><path d="M 1367.042969 -7.707031 L 1559.960938 122.523438 L 1408.609375 346.726562 L 1215.691406 216.492188 Z M 1367.042969 -7.707031 " clip-rule="nonzero"/></clipPath><clipPath id="e7f82bc2da"><path d="M 1367.042969 -7.707031 L 1559.960938 122.523438 L 1408.609375 346.726562 L 1215.691406 216.492188 Z M 1367.042969 -7.707031 " clip-rule="nonzero"/></clipPath><clipPath id="0ba9a797a4"><path d="M 1333.390625 37 L 1363 37 L 1363 70 L 1333.390625 70 Z M 1333.390625 37 " clip-rule="nonzero"/></clipPath><clipPath id="c9b29d2631"><path d="M 1367.042969 -7.707031 L 1559.960938 122.523438 L 1408.609375 346.726562 L 1215.691406 216.492188 Z M 1367.042969 -7.707031 " clip-rule="nonzero"/></clipPath><clipPath id="edb22bca40"><path d="M 1367.042969 -7.707031 L 1559.960938 122.523438 L 1408.609375 346.726562 L 1215.691406 216.492188 Z M 1367.042969 -7.707031 " clip-rule="nonzero"/></clipPath><clipPath id="39aa10ae60"><path d="M 1391.277344 23 L 1406.25 23 L 1406.25 62.878906 L 1391.277344 62.878906 Z M 1391.277344 23 " clip-rule="nonzero"/></clipPath><clipPath id="0baa120f14"><path d="M 1367.042969 -7.707031 L 1559.960938 122.523438 L 1408.609375 346.726562 L 1215.691406 216.492188 Z M 1367.042969 -7.707031 " clip-rule="nonzero"/></clipPath><clipPath id="d3d8a334c3"><path d="M 1367.042969 -7.707031 L 1559.960938 122.523438 L 1408.609375 346.726562 L 1215.691406 216.492188 Z M 1367.042969 -7.707031 " clip-rule="nonzero"/></clipPath><clipPath id="205fb33ba9"><path d="M 1435.195312 104 L 1474 104 L 1474 120.769531 L 1435.195312 120.769531 Z M 1435.195312 104 " clip-rule="nonzero"/></clipPath><clipPath id="7becbfb269"><path d="M 1367.042969 -7.707031 L 1559.960938 122.523438 L 1408.609375 346.726562 L 1215.691406 216.492188 Z M 1367.042969 -7.707031 " clip-rule="nonzero"/></clipPath><clipPath id="9f98c42124"><path d="M 1367.042969 -7.707031 L 1559.960938 122.523438 L 1408.609375 346.726562 L 1215.691406 216.492188 Z M 1367.042969 -7.707031 " clip-rule="nonzero"/></clipPath><clipPath id="d8ba4b8d89"><path d="M 1424.214844 51 L 1458 51 L 1458 78.851562 L 1424.214844 78.851562 Z M 1424.214844 51 " clip-rule="nonzero"/></clipPath><clipPath id="5e66451e4e"><path d="M 1367.042969 -7.707031 L 1559.960938 122.523438 L 1408.609375 346.726562 L 1215.691406 216.492188 Z M 1367.042969 -7.707031 " clip-rule="nonzero"/></clipPath><clipPath id="9974eccbfa"><path d="M 1367.042969 -7.707031 L 1559.960938 122.523438 L 1408.609375 346.726562 L 1215.691406 216.492188 Z M 1367.042969 -7.707031 " clip-rule="nonzero"/></clipPath><clipPath id="bd39bd4a86"><path d="M 1227 337.175781 L 1416 337.175781 L 1416 425.246094 L 1227 425.246094 Z M 1227 337.175781 " clip-rule="nonzero"/></clipPath><clipPath id="478c45795e"><path d="M 1287.476562 417.605469 L 1476.117188 417.605469 L 1476.117188 493.101562 L 1287.476562 493.101562 Z M 1287.476562 417.605469 " clip-rule="nonzero"/></clipPath></defs><path fill="#ffffff" d="M 618.890625 498.152344 L 613.773438 497.589844 L 609.796875 497.589844 L 605.820312 497.011719 L 599.566406 496.453125 L 595.03125 495.875 L 591.613281 495.3125 L 585.9375 494.75 L 581.960938 493.613281 L 578.546875 493.035156 L 571.152344 490.199219 L 564.339844 487.921875 L 560.9375 485.082031 L 555.246094 481.683594 L 552.40625 479.40625 L 549.007812 477.128906 L 541.617188 471.453125 L 539.339844 468.613281 L 536.5 465.777344 L 532.523438 457.804688 L 527.410156 450.429688 L 525.707031 443.039062 L 524.570312 439.636719 L 523.429688 432.246094 L 522.292969 428.269531 L 522.292969 417.476562 L 521.730469 412.921875 L 521.730469 407.808594 L 522.292969 403.832031 L 522.292969 389.0625 L 522.871094 377.132812 L 523.429688 372.59375 L 524.007812 364.625 L 525.132812 356.671875 L 525.132812 352.695312 L 525.707031 349.292969 L 526.847656 337.363281 L 529.109375 329.410156 L 528.546875 324.296875 L 529.683594 319.742188 L 531.386719 313.488281 L 530.824219 310.648438 L 532.523438 300.433594 L 534.800781 297.019531 L 534.800781 289.066406 L 535.363281 287.367188 L 535.363281 285.089844 L 537.0625 278.835938 L 538.199219 272.582031 L 539.914062 266.90625 L 540.476562 260.089844 L 540.476562 256.671875 L 542.175781 253.273438 L 542.175781 245.320312 L 545.03125 233.953125 L 546.152344 229.976562 L 547.292969 223.722656 L 547.871094 218.042969 L 549.570312 214.628906 L 550.128906 210.652344 L 551.269531 206.675781 L 551.847656 203.261719 L 552.40625 199.28125 L 554.109375 195.304688 L 555.824219 187.929688 L 559.800781 176.5625 L 563.199219 165.191406 L 565.476562 157.238281 L 568.890625 147.585938 L 571.730469 140.769531 L 575.128906 132.816406 L 577.40625 126.5625 L 581.382812 123.148438 L 585.359375 117.46875 L 589.914062 111.792969 L 597.867188 103.839844 L 601.269531 101 L 608.660156 97.585938 L 612.074219 95.886719 L 624.003906 90.769531 L 633.660156 89.054688 L 641.050781 87.355469 L 645.027344 86.792969 L 653.542969 86.792969 L 664.335938 86.21875 L 673.425781 86.21875 L 687.632812 87.933594 L 692.75 89.632812 L 698.425781 89.632812 L 706.394531 90.769531 L 709.796875 91.332031 L 713.773438 92.472656 L 717.75 93.03125 L 720.027344 94.746094 L 726.28125 95.886719 L 734.234375 98.726562 L 741.609375 104.402344 L 747.863281 110.078125 L 749.003906 112.933594 L 751.839844 118.046875 L 753.539062 120.886719 L 754.679688 124.863281 L 757.515625 130.539062 L 758.65625 136.792969 L 759.234375 143.609375 L 759.792969 151 L 760.371094 156.117188 L 760.933594 164.628906 L 760.933594 177.136719 L 760.371094 182.816406 L 759.234375 187.351562 L 758.09375 195.882812 L 756.957031 204.976562 L 753.539062 227.136719 L 752.417969 231.675781 L 749.5625 246.441406 L 747.300781 248.71875 L 740.472656 249.296875 L 732.519531 249.859375 L 696.726562 249.296875 L 680.257812 247.019531 L 676.28125 240.765625 L 676.28125 232.8125 L 677.402344 228.835938 L 679.679688 218.605469 L 680.820312 210.652344 L 684.234375 198.160156 L 684.796875 190.769531 L 685.933594 182.816406 L 685.933594 174.285156 L 682.519531 164.070312 L 676.28125 160.652344 L 668.3125 158.375 L 662.074219 158.375 L 655.257812 159.515625 L 649.003906 161.792969 L 643.890625 168.046875 L 642.191406 171.445312 L 640.472656 175.421875 L 638.214844 185.089844 L 635.359375 192.46875 L 631.960938 202.136719 L 631.960938 205.535156 L 629.683594 212.351562 L 627.984375 220.882812 L 626.265625 227.699219 L 624.566406 232.8125 L 624.003906 236.789062 L 623.429688 240.207031 L 622.289062 244.183594 L 621.167969 252.136719 L 618.3125 260.652344 L 613.773438 283.386719 L 613.199219 287.925781 L 610.9375 297.019531 L 610.359375 300.996094 L 609.222656 308.386719 L 608.097656 312.925781 L 606.382812 321.457031 L 606.382812 333.386719 L 604.683594 337.363281 L 604.121094 341.339844 L 604.121094 345.878906 L 603.542969 349.855469 L 602.40625 353.832031 L 602.984375 357.808594 L 601.269531 369.738281 L 601.269531 374.292969 L 599.566406 382.246094 L 599.007812 390.199219 L 599.007812 395.878906 L 599.566406 399.292969 L 599.566406 403.269531 L 601.84375 411.785156 L 606.382812 415.761719 L 614.914062 418.617188 L 624.003906 417.476562 L 632.519531 417.476562 L 640.472656 412.363281 L 642.75 409.523438 L 647.289062 399.292969 L 650.144531 391.339844 L 652.40625 383.945312 L 652.980469 380.546875 L 653.542969 377.691406 L 655.257812 370.878906 L 656.957031 362.363281 L 658.097656 357.246094 L 658.660156 353.269531 L 661.496094 345.878906 L 662.636719 340.203125 L 666.613281 335.648438 L 671.164062 335.085938 L 685.933594 335.648438 L 697.863281 335.648438 L 725.703125 337.363281 L 732.519531 337.925781 L 736.496094 341.902344 L 738.769531 345.878906 L 738.769531 352.132812 L 737.632812 355.546875 L 737.632812 359.523438 L 736.496094 366.902344 L 735.933594 373.15625 L 734.792969 375.992188 L 734.234375 379.96875 L 733.65625 382.246094 L 731.957031 394.175781 L 730.816406 397.59375 L 727.417969 411.785156 L 725.703125 418.617188 L 725.140625 422.59375 L 724.003906 426.570312 L 722.304688 429.96875 L 718.886719 439.0625 L 716.050781 445.875 L 714.347656 449.851562 L 712.074219 453.269531 L 709.234375 456.683594 L 707.519531 460.082031 L 706.394531 463.5 L 697.863281 473.730469 L 689.351562 481.105469 L 680.257812 486.796875 L 676.28125 488.496094 L 661.496094 491.898438 L 654.679688 493.613281 L 647.867188 494.75 L 640.472656 496.453125 L 631.960938 496.453125 L 624.566406 497.011719 Z M 618.890625 498.152344 " fill-opacity="1" fill-rule="nonzero"/><path fill="#ffffff" d="M 935.359375 492.476562 L 930.820312 491.335938 L 915.476562 491.335938 L 909.222656 490.773438 L 905.246094 490.773438 L 901.269531 490.199219 L 897.867188 485.082031 L 898.429688 480.542969 L 899.007812 475.429688 L 900.128906 470.3125 L 902.40625 466.335938 L 902.40625 458.382812 L 904.683594 446.453125 L 905.246094 442.476562 L 905.246094 438.5 L 905.820312 434.523438 L 906.382812 427.128906 L 907.523438 424.292969 L 908.082031 416.339844 L 909.796875 407.808594 L 910.9375 397.015625 L 914.335938 379.96875 L 916.613281 373.714844 L 917.753906 368.039062 L 917.753906 361.226562 L 919.453125 353.269531 L 920.589844 349.292969 L 921.730469 341.339844 L 921.730469 337.363281 L 922.867188 330.53125 L 917.753906 331.109375 L 913.773438 331.109375 L 908.660156 329.972656 L 890.476562 331.671875 L 881.960938 329.972656 L 872.292969 329.410156 L 871.730469 332.25 L 871.152344 336.785156 L 868.890625 344.742188 L 867.753906 352.132812 L 865.476562 356.109375 L 865.476562 365.761719 L 864.339844 369.738281 L 861.5 382.808594 L 858.085938 395.316406 L 858.660156 398.714844 L 855.824219 405.546875 L 855.246094 408.386719 L 852.96875 415.761719 L 851.847656 424.292969 L 848.429688 440.199219 L 847.871094 444.738281 L 846.152344 452.707031 L 846.152344 456.683594 L 845.015625 464.636719 L 843.894531 469.175781 L 843.316406 473.152344 L 842.175781 481.683594 L 839.339844 487.359375 L 834.800781 489.636719 L 829.683594 490.199219 L 822.855469 490.773438 L 814.339844 491.898438 L 809.800781 491.898438 L 805.808594 490.199219 L 801.832031 490.773438 L 797.855469 491.898438 L 791.039062 490.773438 L 772.855469 490.773438 L 761.503906 489.636719 L 759.226562 483.382812 L 759.226562 478.828125 L 761.503906 473.730469 L 764.339844 466.335938 L 764.902344 460.660156 L 766.039062 455.546875 L 766.039062 451.566406 L 767.179688 448.152344 L 766.039062 444.175781 L 769.457031 437.921875 L 770.59375 433.945312 L 770.019531 429.40625 L 772.292969 421.453125 L 771.734375 413.5 L 773.996094 409.523438 L 776.273438 404.40625 L 776.832031 400.429688 L 776.832031 395.878906 L 778.546875 387.925781 L 779.6875 383.386719 L 782.523438 363.5 L 783.664062 360.085938 L 784.226562 356.671875 L 785.363281 352.132812 L 784.785156 348.15625 L 787.0625 340.203125 L 787.640625 332.808594 L 789.339844 327.132812 L 790.480469 320.316406 L 790.480469 316.339844 L 791.617188 307.8125 L 793.316406 303.835938 L 795.015625 299.296875 L 795.015625 294.742188 L 797.292969 286.789062 L 800.132812 270.320312 L 800.710938 266.90625 L 801.832031 258.949219 L 802.410156 250.996094 L 805.808594 243.042969 L 806.386719 239.066406 L 806.949219 231.113281 L 809.222656 219.183594 L 810.363281 211.789062 L 811.5 207.253906 L 813.199219 195.304688 L 813.777344 192.46875 L 813.777344 184.515625 L 816.039062 179.976562 L 816.617188 175.421875 L 817.179688 172.023438 L 818.878906 164.628906 L 818.878906 152.699219 L 822.855469 145.308594 L 822.292969 137.355469 L 823.433594 133.378906 L 823.992188 129.402344 L 825.707031 125.421875 L 825.132812 120.886719 L 826.269531 116.910156 L 827.96875 109.515625 L 828.546875 102.703125 L 829.109375 96.449219 L 834.222656 93.609375 L 848.429688 93.609375 L 871.730469 93.03125 L 879.683594 93.609375 L 892.175781 93.609375 L 897.867188 91.910156 L 904.683594 93.03125 L 910.359375 94.171875 L 911.5 99.285156 L 911.5 102.703125 L 912.058594 106.679688 L 910.359375 113.492188 L 909.796875 116.910156 L 909.222656 124.863281 L 907.523438 129.976562 L 906.960938 135.09375 L 904.683594 145.886719 L 903.542969 153.839844 L 902.984375 160.652344 L 901.269531 164.628906 L 901.269531 173.722656 L 900.128906 177.699219 L 899.007812 182.238281 L 898.429688 189.628906 L 897.289062 192.46875 L 896.730469 199.28125 L 896.730469 202.699219 L 895.589844 205.535156 L 894.453125 210.089844 L 893.890625 214.066406 L 892.175781 217.46875 L 892.753906 221.445312 L 891.039062 228.835938 L 889.914062 232.8125 L 890.476562 236.226562 L 889.335938 240.765625 L 888.777344 244.183594 L 887.636719 248.71875 L 891.613281 249.296875 L 896.152344 249.296875 L 912.636719 249.859375 L 917.175781 249.296875 L 924.003906 249.859375 L 928.542969 249.296875 L 940.472656 249.859375 L 941.050781 247.019531 L 942.175781 240.765625 L 944.449219 235.652344 L 944.449219 231.675781 L 945.027344 227.699219 L 947.867188 219.183594 L 946.726562 215.765625 L 949.566406 208.375 L 950.128906 204.976562 L 950.703125 201 L 951.265625 196.445312 L 951.84375 192.46875 L 952.980469 189.066406 L 952.980469 185.089844 L 954.683594 177.699219 L 955.242188 170.308594 L 957.519531 165.191406 L 957.519531 158.375 L 956.957031 153.839844 L 957.519531 149.863281 L 959.796875 141.90625 L 959.796875 137.355469 L 961.496094 129.976562 L 962.636719 126.5625 L 963.773438 119.171875 L 964.335938 115.769531 L 966.613281 110.65625 L 967.75 106.679688 L 967.171875 102.703125 L 967.75 99.285156 L 972.289062 94.171875 L 975.703125 93.609375 L 980.820312 93.03125 L 1001.265625 93.03125 L 1012.632812 93.609375 L 1028.539062 93.609375 L 1037.632812 94.746094 L 1041.609375 96.449219 L 1045.585938 101.5625 L 1045.023438 104.976562 L 1045.585938 108.957031 L 1043.308594 112.355469 L 1043.886719 114.632812 L 1043.308594 118.046875 L 1043.308594 122.023438 L 1041.046875 128.839844 L 1040.472656 136.792969 L 1040.472656 141.332031 L 1039.910156 145.308594 L 1038.773438 149.285156 L 1037.632812 153.839844 L 1037.070312 161.214844 L 1037.070312 165.191406 L 1035.933594 172.585938 L 1035.355469 176.5625 L 1033.65625 183.953125 L 1033.09375 187.929688 L 1031.957031 191.90625 L 1031.378906 196.445312 L 1030.257812 203.835938 L 1029.679688 207.253906 L 1026.839844 214.066406 L 1026.265625 217.46875 L 1025.140625 224.859375 L 1024.003906 233.953125 L 1023.425781 242.464844 L 1020.585938 250.421875 L 1020.027344 258.949219 L 1019.449219 262.367188 L 1017.75 270.320312 L 1017.1875 274.296875 L 1014.910156 277.695312 L 1014.910156 282.25 L 1016.050781 286.226562 L 1014.332031 289.625 L 1013.773438 293.601562 L 1013.773438 300.996094 L 1013.210938 304.972656 L 1010.355469 312.363281 L 1009.796875 316.339844 L 1007.519531 326.554688 L 1007.519531 329.972656 L 1006.378906 336.226562 L 1004.679688 344.179688 L 1003.542969 348.15625 L 1004.117188 351.554688 L 1000.703125 363.5 L 1001.265625 366.902344 L 1000.140625 370.878906 L 999.003906 374.292969 L 998.425781 378.269531 L 996.726562 386.222656 L 996.726562 390.761719 L 996.164062 394.738281 L 994.449219 402.691406 L 992.75 408.945312 L 991.613281 412.363281 L 991.050781 420.316406 L 990.472656 429.40625 L 988.773438 437.359375 L 988.195312 441.335938 L 987.074219 448.730469 L 985.933594 452.707031 L 985.359375 458.945312 L 984.21875 465.777344 L 982.519531 468.613281 L 981.957031 473.152344 L 980.820312 477.128906 L 980.820312 481.683594 L 979.679688 485.660156 L 977.402344 489.058594 L 970.589844 490.773438 L 962.074219 490.773438 L 958.660156 491.335938 L 951.265625 491.898438 L 939.914062 491.898438 Z M 935.359375 492.476562 " fill-opacity="1" fill-rule="nonzero"/><path fill="#ffffff" d="M 1073.996094 492.476562 L 1065.480469 491.898438 L 1061.503906 491.335938 L 1020.019531 490.773438 L 1014.902344 489.636719 L 1013.765625 485.082031 L 1014.902344 481.105469 L 1015.464844 477.707031 L 1018.878906 470.875 L 1023.433594 463.5 L 1029.109375 446.453125 L 1032.511719 439.636719 L 1035.363281 432.808594 L 1041.601562 419.175781 L 1043.878906 411.785156 L 1048.433594 401.570312 L 1049.554688 398.15625 L 1052.410156 394.175781 L 1055.25 387.363281 L 1056.386719 383.945312 L 1056.949219 379.96875 L 1058.648438 376.570312 L 1061.503906 369.179688 L 1063.203125 365.203125 L 1067.179688 357.246094 L 1068.316406 353.269531 L 1069.457031 348.15625 L 1072.292969 343.601562 L 1075.695312 336.785156 L 1076.832031 332.808594 L 1080.246094 324.855469 L 1080.808594 321.457031 L 1082.523438 317.480469 L 1084.226562 314.066406 L 1087.0625 306.109375 L 1088.761719 302.695312 L 1093.316406 286.789062 L 1095.015625 282.25 L 1098.992188 274.859375 L 1101.832031 265.203125 L 1105.246094 258.949219 L 1106.945312 255.535156 L 1108.648438 248.160156 L 1111.5 244.183594 L 1113.199219 236.789062 L 1114.339844 233.953125 L 1117.738281 226.558594 L 1119.453125 218.605469 L 1122.292969 214.628906 L 1124.570312 211.230469 L 1129.109375 199.28125 L 1131.945312 191.90625 L 1133.660156 188.492188 L 1137.0625 183.375 L 1138.761719 177.699219 L 1140.476562 173.722656 L 1145.59375 163.492188 L 1146.714844 159.515625 L 1148.429688 156.117188 L 1149.570312 152.699219 L 1150.707031 148.722656 L 1154.105469 142.46875 L 1156.382812 139.070312 L 1157.523438 136.214844 L 1160.921875 126 L 1164.898438 118.609375 L 1170.015625 108.378906 L 1171.730469 104.402344 L 1173.429688 101 L 1175.707031 94.746094 L 1179.683594 94.171875 L 1185.359375 94.171875 L 1196.152344 94.746094 L 1201.828125 94.171875 L 1210.921875 94.171875 L 1221.726562 93.609375 L 1226.84375 93.609375 L 1230.820312 94.746094 L 1235.921875 94.171875 L 1245.011719 94.171875 L 1247.867188 95.308594 L 1251.84375 98.148438 L 1253.542969 122.585938 L 1253.542969 135.09375 L 1254.679688 138.492188 L 1254.679688 148.722656 L 1255.242188 169.167969 L 1255.242188 177.136719 L 1255.820312 184.515625 L 1256.941406 195.882812 L 1256.941406 203.835938 L 1257.519531 212.351562 L 1256.941406 216.328125 L 1256.941406 228.835938 L 1258.082031 236.789062 L 1258.082031 248.160156 L 1258.65625 256.113281 L 1258.082031 259.511719 L 1258.65625 266.90625 L 1258.65625 270.320312 L 1259.21875 279.394531 L 1260.359375 285.648438 L 1260.359375 307.8125 L 1260.933594 314.625 L 1261.496094 319.179688 L 1261.496094 336.226562 L 1262.058594 362.363281 L 1262.058594 366.339844 L 1262.636719 374.855469 L 1262.058594 383.386719 L 1262.636719 391.339844 L 1262.058594 395.316406 L 1263.195312 416.898438 L 1263.195312 420.316406 L 1263.773438 427.707031 L 1264.335938 431.683594 L 1264.335938 440.199219 L 1263.773438 448.152344 L 1264.335938 452.707031 L 1264.335938 457.804688 L 1264.910156 470.3125 L 1264.910156 482.246094 C 1265.285156 483.378906 1265.472656 484.988281 1265.472656 487.078125 C 1265.472656 489.160156 1264.714844 490.578125 1263.195312 491.335938 C 1262.0625 491.710938 1261.019531 491.804688 1260.078125 491.617188 C 1259.128906 491.429688 1258.085938 491.335938 1256.941406 491.335938 L 1252.964844 491.898438 L 1248.425781 491.335938 L 1240.472656 491.335938 L 1227.964844 491.898438 L 1223.429688 491.898438 L 1216.613281 491.335938 L 1212.636719 491.898438 L 1206.945312 492.476562 L 1199.566406 491.898438 L 1191.035156 491.898438 L 1188.777344 490.199219 L 1187.636719 484.519531 L 1187.058594 474.289062 L 1186.5 468.613281 L 1187.058594 462.921875 L 1187.058594 436.222656 L 1186.5 431.683594 L 1173.992188 431.105469 L 1164.898438 429.96875 L 1139.898438 429.40625 L 1124.570312 429.40625 L 1121.714844 435.660156 L 1117.738281 443.039062 L 1116.617188 447.015625 L 1114.902344 450.992188 L 1112.640625 457.804688 L 1106.945312 468.613281 L 1103.546875 477.128906 L 1101.832031 483.382812 L 1100.132812 486.222656 L 1097.855469 490.199219 L 1094.457031 492.476562 L 1078.546875 491.898438 Z M 1167.753906 355.546875 L 1184.800781 355.546875 L 1188.199219 352.695312 L 1188.777344 344.742188 L 1188.199219 340.203125 L 1188.777344 335.648438 L 1188.777344 320.878906 L 1189.335938 316.902344 L 1189.335938 307.25 L 1190.476562 302.695312 L 1189.898438 289.066406 L 1190.476562 267.464844 L 1191.035156 247.019531 L 1190.476562 233.953125 L 1185.921875 235.652344 L 1183.660156 243.042969 L 1180.804688 252.136719 L 1179.105469 257.8125 L 1176.269531 266.90625 L 1173.992188 271.441406 L 1171.730469 277.136719 L 1171.152344 281.113281 L 1168.875 285.089844 L 1167.175781 290.203125 L 1165.476562 294.179688 L 1163.761719 299.296875 L 1160.359375 311.789062 L 1159.785156 315.765625 L 1156.945312 324.296875 L 1154.683594 328.273438 L 1151.832031 337.925781 L 1150.707031 341.902344 L 1149.570312 347.015625 L 1147.855469 350.996094 L 1151.832031 354.410156 L 1156.382812 354.410156 L 1162.636719 354.972656 Z M 1167.753906 355.546875 " fill-opacity="1" fill-rule="nonzero"/><g clip-path="url(#a0f88fdafe)"><g clip-path="url(#e017c055c0)"><g clip-path="url(#af172b12e0)"><path fill="#ffffff" d="M 1364.378906 231.214844 L 1326.753906 241.648438 C 1325.488281 242 1324.144531 241.558594 1323.332031 240.527344 C 1322.527344 239.496094 1322.414062 238.082031 1323.054688 236.9375 L 1386.53125 123.242188 C 1387.167969 122.097656 1388.429688 121.453125 1389.726562 121.597656 C 1391.023438 121.746094 1392.109375 122.652344 1392.480469 123.90625 L 1431.011719 254.441406 C 1431.394531 255.734375 1430.933594 257.132812 1429.859375 257.945312 C 1428.78125 258.761719 1427.3125 258.828125 1426.167969 258.105469 L 1386.894531 233.394531 L 1384 287.890625 C 1383.875 290.21875 1381.886719 292.011719 1379.554688 291.886719 L 1365.429688 291.136719 C 1363.097656 291.011719 1361.308594 289.019531 1361.433594 286.6875 L 1364.382812 231.214844 Z M 1364.378906 231.214844 " fill-opacity="1" fill-rule="evenodd"/></g></g></g><g clip-path="url(#2eef780396)"><g clip-path="url(#b6c0a57a6c)"><g clip-path="url(#ecbc9196f6)"><path fill="#ffffff" d="M 1342.5625 260.125 L 1319.609375 266.636719 L 1319.527344 266.660156 C 1312.289062 268.667969 1304.558594 266.125 1299.914062 260.222656 C 1295.273438 254.316406 1294.636719 246.199219 1298.300781 239.640625 L 1298.355469 239.542969 L 1375.449219 103.898438 C 1379.113281 97.394531 1386.3125 93.703125 1393.734375 94.53125 C 1401.15625 95.359375 1407.359375 100.539062 1409.496094 107.667969 L 1456.183594 260.363281 L 1456.222656 260.496094 C 1456.984375 263.082031 1457.285156 269.742188 1456.074219 274.296875 C 1454.804688 279.0625 1452.078125 282.316406 1449.832031 284.023438 C 1443.65625 288.695312 1435.234375 289.058594 1428.675781 284.933594 L 1405.203125 270.164062 L 1404.085938 295.414062 L 1404.078125 295.546875 C 1403.769531 301.339844 1400.96875 306.042969 1395.820312 309.210938 C 1391.859375 311.652344 1384.917969 312.761719 1380.460938 312.523438 L 1363.332031 311.613281 C 1358.773438 311.371094 1351.441406 308.933594 1347.492188 305.472656 C 1343.054688 301.582031 1341.121094 296.644531 1341.359375 291.5625 Z M 1358.011719 240.484375 L 1356.027344 292.1875 C 1355.875 295.015625 1361.28125 296.800781 1364.109375 296.953125 L 1381.238281 297.863281 C 1384.070312 298.015625 1389.265625 297.597656 1389.417969 294.765625 L 1391.648438 244.292969 L 1436.496094 272.511719 C 1437.882812 273.382812 1439.664062 273.308594 1440.96875 272.316406 C 1442.273438 271.328125 1442.605469 266.226562 1442.144531 264.65625 L 1395.449219 111.917969 C 1395.003906 110.398438 1393.683594 109.296875 1392.109375 109.121094 C 1390.535156 108.945312 1389.007812 109.734375 1388.238281 111.117188 L 1311.117188 246.800781 C 1310.34375 248.1875 1310.480469 249.902344 1311.457031 251.152344 C 1312.441406 252.402344 1314.078125 252.9375 1315.605469 252.511719 Z M 1358.011719 240.484375 " fill-opacity="1" fill-rule="evenodd"/></g></g></g><g clip-path="url(#e3b08de715)"><g clip-path="url(#b34c35dfcc)"><g clip-path="url(#e7f82bc2da)"><path fill="#ffffff" d="M 1314.246094 97.507812 C 1311.382812 97.128906 1309.382812 94.425781 1309.78125 91.484375 C 1310.179688 88.542969 1312.824219 86.464844 1315.683594 86.847656 L 1343.3125 90.550781 C 1346.171875 90.933594 1348.171875 93.632812 1347.777344 96.574219 C 1347.378906 99.515625 1344.734375 101.59375 1341.871094 101.214844 Z M 1314.246094 97.507812 " fill-opacity="1" fill-rule="evenodd"/></g></g></g><g clip-path="url(#0ba9a797a4)"><g clip-path="url(#c9b29d2631)"><g clip-path="url(#edb22bca40)"><path fill="#ffffff" d="M 1335.113281 46.839844 C 1333.203125 44.632812 1333.410156 41.230469 1335.570312 39.25 C 1337.738281 37.265625 1341.050781 37.449219 1342.960938 39.660156 L 1361.414062 60.984375 C 1363.328125 63.191406 1363.121094 66.597656 1360.953125 68.578125 C 1358.789062 70.558594 1355.480469 70.375 1353.570312 68.167969 Z M 1335.113281 46.839844 " fill-opacity="1" fill-rule="evenodd"/></g></g></g><g clip-path="url(#39aa10ae60)"><g clip-path="url(#0baa120f14)"><g clip-path="url(#d3d8a334c3)"><path fill="#ffffff" d="M 1395.621094 28.171875 C 1396 25.230469 1398.632812 23.132812 1401.492188 23.5 C 1404.359375 23.859375 1406.375 26.546875 1406 29.492188 L 1402.351562 57.929688 C 1401.972656 60.875 1399.339844 62.96875 1396.476562 62.605469 C 1393.613281 62.246094 1391.59375 59.558594 1391.972656 56.609375 Z M 1395.621094 28.171875 " fill-opacity="1" fill-rule="evenodd"/></g></g></g><g clip-path="url(#205fb33ba9)"><g clip-path="url(#7becbfb269)"><g clip-path="url(#9f98c42124)"><path fill="#ffffff" d="M 1469.34375 109.734375 C 1472.175781 110.289062 1474.015625 113.109375 1473.449219 116.023438 C 1472.882812 118.9375 1470.121094 120.851562 1467.289062 120.292969 L 1439.941406 114.902344 C 1437.109375 114.34375 1435.269531 111.527344 1435.835938 108.609375 C 1436.402344 105.695312 1439.164062 103.78125 1441.996094 104.339844 Z M 1469.34375 109.734375 " fill-opacity="1" fill-rule="evenodd"/></g></g></g><g clip-path="url(#d8ba4b8d89)"><g clip-path="url(#5e66451e4e)"><g clip-path="url(#9974eccbfa)"><path fill="#ffffff" d="M 1449.527344 52.046875 C 1451.898438 50.324219 1455.160156 50.894531 1456.8125 53.3125 C 1458.46875 55.734375 1457.886719 59.089844 1455.519531 60.808594 L 1432.648438 77.40625 C 1430.277344 79.125 1427.015625 78.558594 1425.363281 76.140625 C 1423.710938 73.71875 1424.289062 70.363281 1426.65625 68.644531 Z M 1449.527344 52.046875 " fill-opacity="1" fill-rule="evenodd"/></g></g></g><g clip-path="url(#bd39bd4a86)"><path fill="#ffffff" d="M 1303.777344 834.21875 L 1298.820312 833.484375 L 1278.277344 833.484375 L 1268.375 832.089844 L 1262.730469 832.089844 L 1257.734375 832.785156 L 1249.960938 832.089844 L 1245.011719 831.355469 L 1239.320312 832.089844 L 1233.671875 830.65625 L 1228.027344 825.699219 L 1227.289062 815.054688 L 1230.851562 805.140625 L 1231.542969 794.492188 L 1232.980469 789.535156 L 1234.371094 779.625 L 1235.105469 773.976562 L 1237.230469 763.324219 L 1237.929688 758.367188 L 1239.320312 752.675781 L 1240.058594 747.71875 L 1242.882812 738.507812 L 1242.183594 734.246094 L 1244.3125 721.507812 L 1246.402344 713.6875 L 1247.832031 707.339844 L 1249.960938 700.949219 L 1251.394531 694.558594 L 1252.785156 686.039062 L 1252.785156 681.085938 L 1254.214844 676.128906 L 1254.914062 671.871094 L 1256.34375 666.917969 L 1255.605469 661.957031 L 1260.601562 646.355469 L 1261.992188 635.746094 L 1261.992188 631.488281 L 1263.425781 626.535156 L 1264.121094 621.578125 L 1264.816406 617.316406 L 1266.246094 607.367188 L 1266.246094 597.457031 L 1269.074219 587.546875 L 1269.074219 582.585938 L 1270.503906 572.636719 L 1273.328125 566.984375 L 1273.328125 557.769531 L 1274.761719 549.25 L 1276.886719 540.035156 L 1280.40625 530.125 L 1282.535156 515.214844 L 1282.535156 505.304688 L 1284.664062 500.347656 L 1286.097656 490.4375 L 1286.792969 486.179688 L 1286.097656 481.21875 L 1288.917969 472.707031 L 1289.617188 468.445312 L 1291.746094 459.226562 L 1292.441406 454.273438 L 1295.304688 445.058594 L 1294.566406 440.101562 L 1295.304688 434.410156 L 1296 425.195312 L 1297.433594 421.671875 L 1298.820312 411.761719 L 1300.949219 402.546875 L 1301.648438 398.289062 L 1303.078125 394.027344 L 1303.777344 385.507812 L 1305.207031 377.726562 L 1308.03125 369.945312 L 1309.464844 359.296875 L 1310.855469 355.039062 L 1311.589844 350.082031 L 1316.542969 342.996094 L 1321.492188 340.867188 L 1325.75 338.039062 L 1330.703125 337.304688 L 1341.34375 336.609375 L 1347.6875 337.304688 L 1357.632812 337.304688 L 1362.582031 336.609375 L 1400.109375 336.609375 L 1405.0625 335.910156 L 1412.878906 338.039062 L 1415.699219 345.128906 L 1415.007812 349.386719 L 1415.007812 358.601562 L 1413.570312 360.730469 L 1412.878906 368.511719 L 1413.570312 372.769531 L 1411.445312 375.597656 L 1411.445312 381.988281 L 1409.320312 385.507812 L 1407.882812 395.460938 L 1405.0625 401.808594 L 1405.0625 407.5 L 1404.367188 411.761719 L 1404.367188 416.71875 L 1403.667969 420.976562 L 1400.109375 439.40625 L 1398.71875 447.1875 L 1397.285156 451.449219 L 1395.851562 459.96875 L 1395.15625 464.921875 L 1394.464844 473.398438 L 1393.726562 478.355469 L 1392.335938 487.570312 L 1390.207031 496.089844 L 1388.078125 505.304688 L 1387.382812 508.867188 L 1385.253906 518.777344 L 1383.125 525.167969 L 1383.125 531.558594 L 1382.390625 536.511719 L 1381.695312 542.164062 L 1381.695312 547.117188 L 1380.304688 556.335938 L 1378.175781 563.417969 L 1374.613281 584.71875 L 1371.792969 594.628906 L 1369.664062 599.585938 L 1369.664062 605.238281 L 1367.535156 614.449219 L 1366.105469 623.667969 L 1364.710938 632.1875 L 1361.886719 642.097656 L 1361.886719 647.789062 L 1359.023438 657.699219 L 1359.023438 663.394531 L 1357.632812 673.304688 L 1356.894531 676.828125 L 1356.894531 686.777344 L 1353.375 693.867188 L 1354.070312 701.644531 L 1351.941406 712.296875 L 1351.246094 717.945312 L 1348.421875 727.160156 L 1348.421875 732.855469 L 1346.292969 742.765625 L 1344.863281 752.675781 L 1343.472656 761.894531 L 1343.472656 766.847656 L 1341.34375 774.667969 L 1338.476562 791.667969 L 1336.351562 800.878906 L 1334.960938 810.792969 L 1332.832031 820.007812 L 1332.136719 825.699219 L 1330.007812 832.089844 L 1322.191406 834.21875 Z M 1303.777344 834.21875 " fill-opacity="1" fill-rule="nonzero"/></g><path fill="#ffffff" d="M 124.363281 498.152344 L 119.25 497.589844 L 115.273438 497.589844 L 111.292969 497.011719 L 105.042969 496.453125 L 100.503906 495.875 L 97.085938 495.3125 L 91.410156 494.75 L 87.433594 493.613281 L 84.019531 493.035156 L 76.625 490.199219 L 69.8125 487.921875 L 66.410156 485.082031 L 60.71875 481.683594 L 57.878906 479.40625 L 54.480469 477.128906 L 47.089844 471.453125 L 44.8125 468.613281 L 41.972656 465.777344 L 37.996094 457.804688 L 32.882812 450.429688 L 31.183594 443.039062 L 30.042969 439.636719 L 28.90625 432.246094 L 27.765625 428.269531 L 27.765625 417.476562 L 27.203125 412.921875 L 27.203125 407.808594 L 27.765625 403.832031 L 27.765625 389.0625 L 28.34375 377.132812 L 28.90625 372.59375 L 29.480469 364.625 L 30.605469 356.671875 L 30.605469 352.695312 L 31.183594 349.292969 L 32.320312 337.363281 L 34.582031 329.410156 L 34.019531 324.296875 L 35.160156 319.742188 L 36.859375 313.488281 L 36.296875 310.648438 L 37.996094 300.433594 L 40.273438 297.019531 L 40.273438 289.066406 L 40.835938 287.367188 L 40.835938 285.089844 L 42.535156 278.835938 L 43.671875 272.582031 L 45.390625 266.90625 L 45.949219 260.089844 L 45.949219 256.671875 L 47.648438 253.273438 L 47.648438 245.320312 L 50.503906 233.953125 L 51.628906 229.976562 L 52.765625 223.722656 L 53.34375 218.042969 L 55.042969 214.628906 L 55.605469 210.652344 L 56.742188 206.675781 L 57.320312 203.261719 L 57.878906 199.28125 L 59.582031 195.304688 L 61.296875 187.929688 L 65.273438 176.5625 L 68.671875 165.191406 L 70.949219 157.238281 L 74.363281 147.585938 L 77.203125 140.769531 L 80.601562 132.816406 L 82.878906 126.5625 L 86.855469 123.148438 L 90.832031 117.46875 L 95.386719 111.792969 L 103.339844 103.839844 L 106.742188 101 L 114.132812 97.585938 L 117.546875 95.886719 L 129.480469 90.769531 L 139.132812 89.054688 L 146.523438 87.355469 L 150.5 86.792969 L 159.015625 86.792969 L 169.808594 86.21875 L 178.898438 86.21875 L 193.109375 87.933594 L 198.222656 89.632812 L 203.898438 89.632812 L 211.867188 90.769531 L 215.269531 91.332031 L 219.246094 92.472656 L 223.222656 93.03125 L 225.5 94.746094 L 231.753906 95.886719 L 239.707031 98.726562 L 247.082031 104.402344 L 253.335938 110.078125 L 254.476562 112.933594 L 257.3125 118.046875 L 259.011719 120.886719 L 260.152344 124.863281 L 262.988281 130.539062 L 264.128906 136.792969 L 264.707031 143.609375 L 265.265625 151 L 265.84375 156.117188 L 266.40625 164.628906 L 266.40625 177.136719 L 265.84375 182.816406 L 264.707031 187.351562 L 263.566406 195.882812 L 262.429688 204.976562 L 259.011719 227.136719 L 257.890625 231.675781 L 255.035156 246.441406 L 252.773438 248.71875 L 245.945312 249.296875 L 237.992188 249.859375 L 202.199219 249.296875 L 185.730469 247.019531 L 181.753906 240.765625 L 181.753906 232.8125 L 182.878906 228.835938 L 185.152344 218.605469 L 186.292969 210.652344 L 189.707031 198.160156 L 190.269531 190.769531 L 191.40625 182.816406 L 191.40625 174.285156 L 187.992188 164.070312 L 181.753906 160.652344 L 173.785156 158.375 L 167.546875 158.375 L 160.730469 159.515625 L 154.476562 161.792969 L 149.363281 168.046875 L 147.664062 171.445312 L 145.949219 175.421875 L 143.6875 185.089844 L 140.832031 192.46875 L 137.433594 202.136719 L 137.433594 205.535156 L 135.15625 212.351562 L 133.457031 220.882812 L 131.738281 227.699219 L 130.039062 232.8125 L 129.480469 236.789062 L 128.902344 240.207031 L 127.761719 244.183594 L 126.640625 252.136719 L 123.785156 260.652344 L 119.25 283.386719 L 118.671875 287.925781 L 116.410156 297.019531 L 115.832031 300.996094 L 114.695312 308.386719 L 113.570312 312.925781 L 111.855469 321.457031 L 111.855469 333.386719 L 110.15625 337.363281 L 109.59375 341.339844 L 109.59375 345.878906 L 109.019531 349.855469 L 107.878906 353.832031 L 108.457031 357.808594 L 106.742188 369.738281 L 106.742188 374.292969 L 105.042969 382.246094 L 104.480469 390.199219 L 104.480469 395.878906 L 105.042969 399.292969 L 105.042969 403.269531 L 107.316406 411.785156 L 111.855469 415.761719 L 120.386719 418.617188 L 129.480469 417.476562 L 137.992188 417.476562 L 145.949219 412.363281 L 148.222656 409.523438 L 152.761719 399.292969 L 155.617188 391.339844 L 157.878906 383.945312 L 158.453125 380.546875 L 159.015625 377.691406 L 160.730469 370.878906 L 162.433594 362.363281 L 163.570312 357.246094 L 164.132812 353.269531 L 166.96875 345.878906 L 168.109375 340.203125 L 172.085938 335.648438 L 176.640625 335.085938 L 191.40625 335.648438 L 203.339844 335.648438 L 231.175781 337.363281 L 237.992188 337.925781 L 241.96875 341.902344 L 244.246094 345.878906 L 244.246094 352.132812 L 243.105469 355.546875 L 243.105469 359.523438 L 241.96875 366.902344 L 241.40625 373.15625 L 240.269531 375.992188 L 239.707031 379.96875 L 239.128906 382.246094 L 237.429688 394.175781 L 236.292969 397.59375 L 232.890625 411.785156 L 231.175781 418.617188 L 230.613281 422.59375 L 229.476562 426.570312 L 227.777344 429.96875 L 224.359375 439.0625 L 221.523438 445.875 L 219.824219 449.851562 L 217.546875 453.269531 L 214.707031 456.683594 L 212.992188 460.082031 L 211.867188 463.5 L 203.339844 473.730469 L 194.824219 481.105469 L 185.730469 486.796875 L 181.753906 488.496094 L 166.96875 491.898438 L 160.15625 493.613281 L 153.339844 494.75 L 145.949219 496.453125 L 137.433594 496.453125 L 130.039062 497.011719 Z M 124.363281 498.152344 " fill-opacity="1" fill-rule="nonzero"/><path fill="#ffffff" d="M 293.675781 492.476562 L 285.160156 491.898438 L 281.183594 491.335938 L 239.699219 490.773438 L 234.585938 489.636719 L 233.445312 485.082031 L 234.585938 481.105469 L 235.144531 477.707031 L 238.5625 470.875 L 243.113281 463.5 L 248.792969 446.453125 L 252.191406 439.636719 L 255.046875 432.808594 L 261.285156 419.175781 L 263.5625 411.785156 L 268.113281 401.570312 L 269.238281 398.15625 L 272.089844 394.175781 L 274.929688 387.363281 L 276.066406 383.945312 L 276.628906 379.96875 L 278.328125 376.570312 L 281.183594 369.179688 L 282.882812 365.203125 L 286.859375 357.246094 L 288 353.269531 L 289.136719 348.15625 L 291.976562 343.601562 L 295.375 336.785156 L 296.511719 332.808594 L 299.929688 324.855469 L 300.488281 321.457031 L 302.207031 317.480469 L 303.90625 314.066406 L 306.742188 306.109375 L 308.445312 302.695312 L 312.996094 286.789062 L 314.699219 282.25 L 318.675781 274.859375 L 321.511719 265.203125 L 324.929688 258.949219 L 326.628906 255.535156 L 328.328125 248.160156 L 331.183594 244.183594 L 332.882812 236.789062 L 334.019531 233.953125 L 337.417969 226.558594 L 339.136719 218.605469 L 341.972656 214.628906 L 344.25 211.230469 L 348.789062 199.28125 L 351.628906 191.90625 L 353.34375 188.492188 L 356.742188 183.375 L 358.441406 177.699219 L 360.15625 173.722656 L 365.273438 163.492188 L 366.394531 159.515625 L 368.113281 156.117188 L 369.25 152.699219 L 370.386719 148.722656 L 373.789062 142.46875 L 376.066406 139.070312 L 377.203125 136.214844 L 380.601562 126 L 384.578125 118.609375 L 389.695312 108.378906 L 391.410156 104.402344 L 393.109375 101 L 395.386719 94.746094 L 399.363281 94.171875 L 405.042969 94.171875 L 415.832031 94.746094 L 421.507812 94.171875 L 430.601562 94.171875 L 441.410156 93.609375 L 446.523438 93.609375 L 450.5 94.746094 L 455.601562 94.171875 L 464.691406 94.171875 L 467.546875 95.308594 L 471.523438 98.148438 L 473.222656 122.585938 L 473.222656 135.09375 L 474.363281 138.492188 L 474.363281 148.722656 L 474.921875 169.167969 L 474.921875 177.136719 L 475.5 184.515625 L 476.625 195.882812 L 476.625 203.835938 L 477.199219 212.351562 L 476.625 216.328125 L 476.625 228.835938 L 477.761719 236.789062 L 477.761719 248.160156 L 478.339844 256.113281 L 477.761719 259.511719 L 478.339844 266.90625 L 478.339844 270.320312 L 478.902344 279.394531 L 480.039062 285.648438 L 480.039062 307.8125 L 480.617188 314.625 L 481.175781 319.179688 L 481.175781 336.226562 L 481.738281 362.363281 L 481.738281 366.339844 L 482.316406 374.855469 L 481.738281 383.386719 L 482.316406 391.339844 L 481.738281 395.316406 L 482.878906 416.898438 L 482.878906 420.316406 L 483.453125 427.707031 L 484.015625 431.683594 L 484.015625 440.199219 L 483.453125 448.152344 L 484.015625 452.707031 L 484.015625 457.804688 L 484.59375 470.3125 L 484.59375 482.246094 C 484.96875 483.378906 485.152344 484.988281 485.152344 487.078125 C 485.152344 489.160156 484.394531 490.578125 482.878906 491.335938 C 481.742188 491.710938 480.703125 491.804688 479.757812 491.617188 C 478.8125 491.429688 477.765625 491.335938 476.625 491.335938 L 472.648438 491.898438 L 468.109375 491.335938 L 460.15625 491.335938 L 447.648438 491.898438 L 443.109375 491.898438 L 436.292969 491.335938 L 432.316406 491.898438 L 426.625 492.476562 L 419.25 491.898438 L 410.71875 491.898438 L 408.457031 490.199219 L 407.316406 484.519531 L 406.742188 474.289062 L 406.179688 468.613281 L 406.742188 462.921875 L 406.742188 436.222656 L 406.179688 431.683594 L 393.671875 431.105469 L 384.578125 429.96875 L 359.582031 429.40625 L 344.25 429.40625 L 341.398438 435.660156 L 337.417969 443.039062 L 336.296875 447.015625 L 334.582031 450.992188 L 332.320312 457.804688 L 326.628906 468.613281 L 323.226562 477.128906 L 321.511719 483.382812 L 319.8125 486.222656 L 317.535156 490.199219 L 314.136719 492.476562 L 298.230469 491.898438 Z M 387.433594 355.546875 L 404.480469 355.546875 L 407.878906 352.695312 L 408.457031 344.742188 L 407.878906 340.203125 L 408.457031 335.648438 L 408.457031 320.878906 L 409.019531 316.902344 L 409.019531 307.25 L 410.15625 302.695312 L 409.578125 289.066406 L 410.15625 267.464844 L 410.71875 247.019531 L 410.15625 233.953125 L 405.601562 235.652344 L 403.339844 243.042969 L 400.488281 252.136719 L 398.789062 257.8125 L 395.949219 266.90625 L 393.671875 271.441406 L 391.410156 277.136719 L 390.832031 281.113281 L 388.558594 285.089844 L 386.855469 290.203125 L 385.15625 294.179688 L 383.441406 299.296875 L 380.042969 311.789062 L 379.464844 315.765625 L 376.625 324.296875 L 374.363281 328.273438 L 371.511719 337.925781 L 370.386719 341.902344 L 369.25 347.015625 L 367.535156 350.996094 L 371.511719 354.410156 L 376.066406 354.410156 L 382.320312 354.972656 Z M 387.433594 355.546875 " fill-opacity="1" fill-rule="nonzero"/><g clip-path="url(#478c45795e)"><path fill="#ffffff" d="M 1399.535156 -3.949219 L 1404.488281 -3.210938 L 1425.03125 -3.210938 L 1434.933594 -1.816406 L 1440.582031 -1.816406 L 1445.578125 -2.515625 L 1453.351562 -1.816406 L 1458.304688 -1.078125 L 1463.992188 -1.816406 L 1469.636719 -0.386719 L 1475.285156 4.570312 L 1476.023438 15.21875 L 1472.464844 25.132812 L 1471.765625 35.78125 L 1470.335938 40.734375 L 1468.941406 50.644531 L 1468.207031 56.300781 L 1466.078125 66.945312 L 1465.382812 71.902344 L 1463.992188 77.59375 L 1463.253906 82.550781 L 1460.433594 91.765625 L 1461.125 96.023438 L 1458.996094 108.761719 L 1456.910156 116.582031 L 1455.480469 122.933594 L 1453.351562 129.320312 L 1451.917969 135.710938 L 1450.527344 144.230469 L 1450.527344 149.183594 L 1449.09375 154.140625 L 1448.398438 158.402344 L 1446.964844 163.355469 L 1447.703125 168.3125 L 1442.710938 183.914062 L 1441.320312 194.523438 L 1441.320312 198.78125 L 1439.890625 203.738281 L 1439.191406 208.691406 L 1438.496094 212.953125 L 1437.0625 222.902344 L 1437.0625 232.816406 L 1434.238281 242.730469 L 1434.238281 247.683594 L 1432.808594 257.632812 L 1429.980469 263.289062 L 1429.980469 272.503906 L 1428.550781 281.023438 L 1426.421875 290.234375 L 1422.90625 300.148438 L 1420.777344 315.054688 L 1420.777344 324.96875 L 1418.648438 329.921875 L 1417.21875 339.832031 L 1416.519531 344.09375 L 1417.21875 349.050781 L 1414.390625 357.570312 L 1413.695312 361.828125 L 1411.566406 371.042969 L 1410.875 376 L 1408.007812 385.210938 L 1408.746094 390.167969 L 1408.007812 395.863281 L 1407.308594 405.074219 L 1405.878906 408.601562 L 1404.488281 418.511719 L 1402.359375 427.722656 L 1401.664062 431.984375 L 1400.234375 436.242188 L 1399.535156 444.761719 L 1398.105469 452.542969 L 1395.277344 460.328125 L 1393.847656 470.972656 L 1392.457031 475.234375 L 1391.71875 480.191406 L 1386.769531 487.273438 L 1381.816406 489.402344 L 1377.5625 492.230469 L 1372.605469 492.96875 L 1361.96875 493.664062 L 1355.625 492.96875 L 1345.683594 492.96875 L 1340.730469 493.664062 L 1303.203125 493.664062 L 1298.25 494.359375 L 1290.433594 492.230469 L 1287.609375 485.144531 L 1288.308594 480.886719 L 1288.308594 471.671875 L 1289.738281 469.539062 L 1290.433594 461.761719 L 1289.738281 457.5 L 1291.867188 454.671875 L 1291.867188 448.285156 L 1293.996094 444.761719 L 1295.425781 434.808594 L 1298.25 428.460938 L 1298.25 422.769531 L 1298.945312 418.511719 L 1298.945312 413.554688 L 1299.640625 409.292969 L 1303.203125 390.863281 L 1304.59375 383.082031 L 1306.027344 378.824219 L 1307.457031 370.304688 L 1308.15625 365.351562 L 1308.851562 356.871094 L 1309.585938 351.914062 L 1310.976562 342.703125 L 1313.105469 334.183594 L 1315.230469 324.96875 L 1315.929688 321.402344 L 1318.058594 311.492188 L 1320.1875 305.101562 L 1320.1875 298.714844 L 1320.921875 293.761719 L 1321.617188 288.109375 L 1321.617188 283.152344 L 1323.011719 273.933594 L 1325.140625 266.851562 L 1328.699219 245.554688 L 1331.519531 235.640625 L 1333.648438 230.6875 L 1333.648438 225.035156 L 1335.777344 215.820312 L 1337.210938 206.605469 L 1338.601562 198.085938 L 1341.425781 188.175781 L 1341.425781 182.480469 L 1344.289062 172.570312 L 1344.289062 166.878906 L 1345.683594 156.964844 L 1346.417969 153.445312 L 1346.417969 143.492188 L 1349.933594 136.40625 L 1349.242188 128.625 L 1351.371094 117.976562 L 1352.0625 112.324219 L 1354.890625 103.109375 L 1354.890625 97.417969 L 1357.015625 87.503906 L 1358.449219 77.59375 L 1359.84375 68.378906 L 1359.84375 63.421875 L 1361.96875 55.601562 L 1364.832031 38.605469 L 1366.960938 29.390625 L 1368.351562 19.480469 L 1370.480469 10.261719 L 1371.175781 4.570312 L 1373.304688 -1.816406 L 1381.121094 -3.949219 Z M 1399.535156 -3.949219 " fill-opacity="1" fill-rule="nonzero"/></g></svg>